<svg width="85" height="27" viewBox="0 0 85 27" fill="none" xmlns="http://www.w3.org/2000/svg">
<path d="M7.95872 26.5763L0.833771 1.23054H5.75223L10.3009 19.8562H10.5352L15.392 1.23054H19.8667L24.7358 19.8687H24.9577L29.5064 1.23054H34.4249L27.2999 26.5763H22.7881L17.7341 8.79218H17.5369L12.4704 26.5763H7.95872ZM41.5141 15.4381V26.5763H37.0517V1.23054H41.4154V10.7971H41.6373C42.0811 9.72453 42.7673 8.87886 43.6959 8.2601C44.6328 7.63303 45.8244 7.31945 47.2707 7.31945C48.5857 7.31945 49.7321 7.59587 50.71 8.14872C51.6879 8.70146 52.4441 9.50997 52.9782 10.5744C53.5206 11.6386 53.7918 12.9381 53.7918 14.4727V26.5763H49.3294V15.1658C49.3294 13.887 49.0007 12.8928 48.3432 12.1832C47.694 11.4654 46.7818 11.1066 45.6066 11.1066C44.8176 11.1066 44.111 11.2798 43.4864 11.6263C42.8701 11.9646 42.3851 12.4555 42.0317 13.099C41.6866 13.7426 41.5141 14.5223 41.5141 15.4381ZM57.9933 26.5763V7.56702H62.4556V26.5763H57.9933ZM60.2368 4.86911C59.53 4.86911 58.922 4.63389 58.4125 4.16367C57.903 3.68514 57.6482 3.11174 57.6482 2.44336C57.6482 1.76689 57.903 1.19349 58.4125 0.72316C58.922 0.244634 59.53 0.00537109 60.2368 0.00537109C60.9518 0.00537109 61.5599 0.244634 62.0615 0.72316C62.571 1.19349 62.8258 1.76689 62.8258 2.44336C62.8258 3.11174 62.571 3.68514 62.0615 4.16367C61.5599 4.63389 60.9518 4.86911 60.2368 4.86911ZM66.6972 26.5763V7.56702H71.0237V10.7353H71.2208C71.567 9.63786 72.1582 8.79219 72.9965 8.19813C73.8424 7.59587 74.8081 7.29474 75.8935 7.29474C76.1396 7.29474 76.415 7.30709 76.7188 7.33191C77.0312 7.34841 77.2904 7.37727 77.4961 7.41847V11.5397C77.3067 11.4737 77.0073 11.4159 76.5958 11.3664C76.1929 11.3087 75.8032 11.2798 75.4243 11.2798C74.611 11.2798 73.8794 11.4572 73.2306 11.8119C72.5893 12.1585 72.0841 12.6412 71.714 13.2599C71.3449 13.8787 71.1598 14.5924 71.1598 15.4009V26.5763H66.6972ZM84.576 1.23054V26.5763H80.1134V1.23054H84.576Z" fill="#2D2D2D"/>
</svg>
